<svg version="1.1" id="Layer_1" xmlns="http://www.w3.org/2000/svg" xmlns:xlink="http://www.w3.org/1999/xlink" x="0px" y="0px"
	 width="100%" viewBox="0 0 141 138" enable-background="new 0 0 141 138" xml:space="preserve">
<path fill="#FDFFFD" opacity="1.000000" stroke="none" 
	d="
M1.000000,53.000000 
	C1.000000,35.333336 1.000000,18.166676 1.000000,1.000009 
	C47.999985,1.000006 94.999969,1.000006 141.999969,1.000003 
	C141.999969,46.999973 141.999969,92.999947 141.999985,138.999939 
	C95.000038,138.999969 48.000076,138.999969 1.000056,138.999985 
	C1.000000,110.500000 1.000000,82.000000 1.000000,53.000000 
M138.997238,50.500000 
	C138.997238,34.407532 138.997238,18.315063 138.997238,2.002895 
	C137.198227,2.002895 136.047775,2.002893 134.897324,2.002896 
	C102.231033,2.002978 69.564697,1.969419 36.898468,2.015568 
	C16.812859,2.043943 3.033414,15.889256 3.012090,36.024223 
	C2.978026,68.190483 2.999508,100.356804 3.014017,132.523102 
	C3.014662,133.953583 3.178618,135.384003 3.260289,136.713287 
	C3.990817,136.852081 4.308912,136.965317 4.627061,136.965469 
	C38.293118,136.981339 71.959297,137.045624 105.625191,136.974686 
	C125.048103,136.933762 138.950836,122.904694 138.989853,103.499390 
	C139.024704,86.166321 138.997223,68.833138 138.997238,50.500000 
z"/>
<path fill="#17DC31" opacity="1.000000" stroke="none" 
	d="
M138.997238,51.000000 
	C138.997223,68.833138 139.024704,86.166321 138.989853,103.499390 
	C138.950836,122.904694 125.048103,136.933762 105.625191,136.974686 
	C71.959297,137.045624 38.293118,136.981339 4.627061,136.965469 
	C4.308912,136.965317 3.990817,136.852081 3.260289,136.713287 
	C3.178618,135.384003 3.014662,133.953583 3.014017,132.523102 
	C2.999508,100.356804 2.978026,68.190483 3.012090,36.024223 
	C3.033414,15.889256 16.812859,2.043943 36.898468,2.015568 
	C69.564697,1.969419 102.231033,2.002978 134.897324,2.002896 
	C136.047775,2.002893 137.198227,2.002895 138.997238,2.002895 
	C138.997238,18.315063 138.997238,34.407532 138.997238,51.000000 
M93.032524,17.375647 
	C92.053246,15.609982 91.073959,13.844316 90.149010,12.176600 
	C81.360870,24.415745 74.290314,35.326946 66.125847,45.346790 
	C57.207359,56.292000 46.817883,66.038788 37.902210,76.986053 
	C26.599216,90.864616 24.027359,106.665588 30.270121,124.224472 
	C32.291771,122.511215 33.950470,121.155350 35.554913,119.738060 
	C49.533081,107.390404 63.915199,95.646233 80.446098,86.709953 
	C90.299156,81.383575 99.228828,74.741135 105.598396,65.189156 
	C110.022591,58.554523 112.121956,53.141903 111.464653,48.904015 
	C104.332504,60.693729 94.933121,69.829346 83.056465,76.426956 
	C83.516220,74.711212 84.522598,73.499405 85.483643,72.252647 
	C88.931419,67.779892 92.613159,63.462730 95.755249,58.783756 
	C105.100113,44.868065 104.250481,31.025444 93.032524,17.375647 
z"/>
<path fill="#F8FEF8" opacity="1.000000" stroke="none" 
	d="
M93.281036,17.639677 
	C104.250481,31.025444 105.100113,44.868065 95.755249,58.783756 
	C92.613159,63.462730 88.931419,67.779892 85.483643,72.252647 
	C84.522598,73.499405 83.516220,74.711212 83.056465,76.426956 
	C94.933121,69.829346 104.332504,60.693729 111.464653,48.904015 
	C112.121956,53.141903 110.022591,58.554523 105.598396,65.189156 
	C99.228828,74.741135 90.299156,81.383575 80.446098,86.709953 
	C63.915199,95.646233 49.533081,107.390404 35.554913,119.738060 
	C33.950470,121.155350 32.291771,122.511215 30.270121,124.224472 
	C24.027359,106.665588 26.599216,90.864616 37.902210,76.986053 
	C46.817883,66.038788 57.207359,56.292000 66.125847,45.346790 
	C74.290314,35.326946 81.360870,24.415745 90.149010,12.176600 
	C91.073959,13.844316 92.053246,15.609982 93.281036,17.639677 
M75.460251,73.176720 
	C78.796951,70.219635 80.358467,66.361732 78.243484,62.469952 
	C76.823425,59.856922 74.041786,57.244610 71.288628,56.266411 
	C67.027504,54.752430 63.078228,56.655132 60.694553,60.716972 
	C58.297783,64.801125 58.987301,68.722908 62.019718,72.204475 
	C64.952309,75.571434 69.552452,76.035980 75.460251,73.176720 
M57.309864,78.379066 
	C52.580952,71.999626 42.570641,73.865173 40.069778,81.073135 
	C38.563377,85.414871 40.099152,89.919968 43.806095,92.426430 
	C47.309166,94.795029 52.439262,94.468262 55.827415,91.660713 
	C59.366760,88.727867 60.051319,84.281372 57.309864,78.379066 
M92.117218,53.691715 
	C96.516006,48.239754 96.360825,42.413845 91.721512,38.836559 
	C87.759422,35.781464 82.129616,36.164871 78.514397,39.736004 
	C75.257248,42.953430 74.770035,48.392826 77.412788,52.034786 
	C80.755867,56.641850 85.811913,57.412697 92.117218,53.691715 
z"/>
<path fill="#1ADD34" opacity="1.000000" stroke="none" 
	d="
M75.153183,73.431320 
	C69.552452,76.035980 64.952309,75.571434 62.019718,72.204475 
	C58.987301,68.722908 58.297783,64.801125 60.694553,60.716972 
	C63.078228,56.655132 67.027504,54.752430 71.288628,56.266411 
	C74.041786,57.244610 76.823425,59.856922 78.243484,62.469952 
	C80.358467,66.361732 78.796951,70.219635 75.153183,73.431320 
z"/>
<path fill="#1ADD33" opacity="1.000000" stroke="none" 
	d="
M57.540325,78.708321 
	C60.051319,84.281372 59.366760,88.727867 55.827415,91.660713 
	C52.439262,94.468262 47.309166,94.795029 43.806095,92.426430 
	C40.099152,89.919968 38.563377,85.414871 40.069778,81.073135 
	C42.570641,73.865173 52.580952,71.999626 57.540325,78.708321 
z"/>
<path fill="#1FDA38" opacity="1.000000" stroke="none" 
	d="
M91.804245,53.936459 
	C85.811913,57.412697 80.755867,56.641850 77.412788,52.034786 
	C74.770035,48.392826 75.257248,42.953430 78.514397,39.736004 
	C82.129616,36.164871 87.759422,35.781464 91.721512,38.836559 
	C96.360825,42.413845 96.516006,48.239754 91.804245,53.936459 
z"/>
</svg>